<svg xmlns="http://www.w3.org/2000/svg" viewBox="0 0 500 500"><g id="freepik--background-complete--inject-393"><polygon points="336.06 53.92 304.32 115.9 295.4 102.08 189.59 170.49 169.63 139.62 275.43 71.23 266.5 57.41 336.06 53.92" style="fill:#ebebeb"></polygon><polygon points="129.72 165.43 149.67 196.3 146.99 198.04 127.02 167.17 129.72 165.43" style="fill:#ebebeb"></polygon><polygon points="143.69 156.39 163.66 187.26 154.52 193.17 134.56 162.3 143.69 156.39" style="fill:#ebebeb"></polygon><polygon points="163.39 143.66 183.35 174.53 169.24 183.66 149.28 152.78 163.39 143.66" style="fill:#ebebeb"></polygon><polygon points="162.94 252.86 144.62 288.64 139.47 280.67 78.42 320.14 66.9 302.33 127.95 262.85 122.81 254.88 162.94 252.86" style="fill:#dbdbdb"></polygon><polygon points="63.3 304.66 74.81 322.47 66.67 327.74 55.15 309.92 63.3 304.66" style="fill:#dbdbdb"></polygon><rect x="51.91" y="312.01" width="6.28" height="21.22" transform="translate(-166.27 81.52) rotate(-32.87)" style="fill:#dbdbdb"></rect><polygon points="43.86 317.22 55.38 335.04 53.83 336.04 42.31 318.22 43.86 317.22" style="fill:#dbdbdb"></polygon><path d="M238.24,344.92c-7.15-10.67-17-25.32-23.83-36,.58-.39,3.36-2.2,3.94-2.58,6.77,10.56,16.62,25.91,23.09,36.48l.05.08-.07,0-3.18,1.95Zm0,0,3.08-2.1,0,.13c-6.82-10-16.81-25.32-23.51-35.61l.69.15-3.13,2,.15-.67c6.66,10.31,16.16,25.51,22.75,36.1Z" style="fill:#ebebeb"></path><path d="M457.69,177.64c-.52.66-36.39,71.91-36.81,72.48l-.25-.39-10.38-16c2-.25-122.79,79.58-122.3,79.63l-.4.26-.25-.4-23.16-35.83-.26-.4.4-.26c.09.33,123.61-80.38,122.8-78.82l-10.35-16-.25-.38c.4-.06,80.77-3.77,81.21-3.82Zm0,0c0-.25-81.89,5-80.51,3.92l10.39,16c.69.52-122.67,79.55-122.78,79.94l.14-.66,23.16,35.84-.65-.14c.41.07,123.09-80,123.29-79.15l10.35,16c-1.63,1,37-71.88,36.61-71.8Z" style="fill:#ebebeb"></path><path d="M234.43,296.57c3.95,5.92,13.91,20.85,17.69,26.58l5.87,9,.25.38-.39.25-10.59,6.88-.42.28-.27-.43c-3.83-5.95-13.6-21.16-17.24-26.95l-5.69-9-.13-.19.19-.12,10.73-6.67Zm0,0L224,303.62l.06-.31,5.89,8.89c3.75,5.64,13.7,20.92,17.51,26.78l-.69-.15L257.35,332l-.13.63-5.72-8.91c-3.62-5.72-13.35-21.24-17.07-27.17Z" style="fill:#ebebeb"></path><path d="M257.28,281.8c7,10.54,16.77,25.11,23.54,35.59l.24.37-.37.24-16.35,10.64-.42.27-.27-.42-11.53-17.95c-3.91-6.05-7.73-12.16-11.6-18.24,4.24-2.66,12.52-7.86,16.76-10.5Zm0,0c-4,2.71-12.18,8.12-16.22,10.82l.09-.39c3.9,5.95,7.85,11.86,11.71,17.83L264.49,328l-.69-.15,16.41-10.54-.13.61c-6.64-10.32-16.16-25.51-22.8-36.07Z" style="fill:#ebebeb"></path><path d="M335.38,186.55a2.78,2.78,0,0,1,2.9,0c.24.15.49.29.74.42s.51.27.77.39a2.76,2.76,0,0,1,1.61,2.39l.11,3.56,11.58-.36-.11-3.56a2.76,2.76,0,0,1,1.46-2.5,16.2,16.2,0,0,0,1.47-.91,2.75,2.75,0,0,1,2.87-.18l3.13,1.68,5.48-10.22-3.13-1.68a2.77,2.77,0,0,1-1.44-2.5,14.12,14.12,0,0,0-.05-1.72,2.78,2.78,0,0,1,1.27-2.6l3-1.87L361,157.06l-3,1.88a2.74,2.74,0,0,1-2.88,0c-.24-.15-.49-.29-.74-.42s-.51-.26-.76-.39a2.74,2.74,0,0,1-1.62-2.39l-.11-3.56-11.58.36.11,3.54a2.72,2.72,0,0,1-1.45,2.5,13.92,13.92,0,0,0-1.47.92,2.77,2.77,0,0,1-2.88.18L331.41,158l-5.48,10.22,3.13,1.68a2.75,2.75,0,0,1,1.44,2.5,14.22,14.22,0,0,0,.05,1.73,2.74,2.74,0,0,1-1.28,2.59l-3,1.87,6.11,9.85Zm2.91-18.29a9.49,9.49,0,1,1,3.88,12.85A9.51,9.51,0,0,1,338.29,168.26Z" style="fill:#dbdbdb"></path><path d="M385.87,399.37a31.62,31.62,0,1,0,31.62-31.62A31.63,31.63,0,0,0,385.87,399.37Zm16.85,0a14.77,14.77,0,1,1,14.77,14.77A14.77,14.77,0,0,1,402.72,399.37Z" style="fill:#ebebeb"></path><polygon points="411.41 369.06 423.57 369.06 422.9 360.45 412.08 360.45 411.41 369.06" style="fill:#ebebeb"></polygon><polygon points="434.56 373.16 443.15 381.76 448.77 375.2 441.12 367.55 434.56 373.16" style="fill:#ebebeb"></polygon><polygon points="448.02 392.42 448.02 404.58 456.63 403.91 456.63 393.1 448.02 392.42" style="fill:#ebebeb"></polygon><polygon points="443.93 415.57 435.33 424.17 441.89 429.78 449.54 422.13 443.93 415.57" style="fill:#ebebeb"></polygon><polygon points="424.66 429.04 412.5 429.04 413.18 437.65 423.99 437.65 424.66 429.04" style="fill:#ebebeb"></polygon><polygon points="401.52 424.94 392.92 416.34 387.31 422.91 394.95 430.55 401.52 424.94" style="fill:#ebebeb"></polygon><polygon points="388.05 405.68 388.05 393.52 379.44 394.19 379.44 405.01 388.05 405.68" style="fill:#ebebeb"></polygon><polygon points="392.14 382.53 400.74 373.93 394.18 368.32 386.53 375.97 392.14 382.53" style="fill:#ebebeb"></polygon><path d="M49.79,102.2A31.63,31.63,0,1,0,81.42,70.58,31.64,31.64,0,0,0,49.79,102.2Zm16.85,0A14.78,14.78,0,1,1,81.42,117,14.78,14.78,0,0,1,66.64,102.2Z" style="fill:#ebebeb"></path><polygon points="75.34 71.89 87.5 71.89 86.83 63.28 76.01 63.28 75.34 71.89" style="fill:#ebebeb"></polygon><polygon points="98.48 75.99 107.08 84.59 112.69 78.03 105.05 70.38 98.48 75.99" style="fill:#ebebeb"></polygon><polygon points="111.95 95.25 111.95 107.41 120.56 106.74 120.56 95.92 111.95 95.25" style="fill:#ebebeb"></polygon><polygon points="107.86 118.4 99.26 127 105.82 132.61 113.47 124.96 107.86 118.4" style="fill:#ebebeb"></polygon><polygon points="88.59 131.87 76.43 131.87 77.1 140.48 87.92 140.48 88.59 131.87" style="fill:#ebebeb"></polygon><polygon points="65.44 127.77 56.85 119.17 51.23 125.73 58.88 133.38 65.44 127.77" style="fill:#ebebeb"></polygon><polygon points="51.98 108.51 51.98 96.35 43.37 97.02 43.37 107.84 51.98 108.51" style="fill:#ebebeb"></polygon><polygon points="56.07 85.36 64.67 76.76 58.11 71.15 50.46 78.8 56.07 85.36" style="fill:#ebebeb"></polygon></g><g id="freepik--Flag--inject-393"><rect x="388.73" y="30.85" width="1.91" height="223.26" style="fill:#263238"></rect><polygon points="400.51 263.99 378.87 263.99 381.11 254.11 398.27 254.11 400.51 263.99" style="fill:#263238"></polygon><polygon points="404.17 272.27 375.22 272.27 378.22 259.05 401.17 259.05 404.17 272.27" style="fill:#37474f"></polygon><path d="M418.43,86.34l0-35.15A5.4,5.4,0,0,0,418.7,53a6.39,6.39,0,0,0,.94,1.76c3.08,4.15,11.87,7,26.21,8.41l0,35.16c-14.34-1.44-23.13-4.26-26.21-8.41a6.39,6.39,0,0,1-.94-1.76A5.5,5.5,0,0,1,418.43,86.34Z" style="fill:#2E6399"></path><g style="opacity:0.1"><path d="M418.43,86.34l0-35.15A5.4,5.4,0,0,0,418.7,53a6.39,6.39,0,0,0,.94,1.76c3.08,4.15,11.87,7,26.21,8.41l0,35.16c-14.34-1.44-23.13-4.26-26.21-8.41a6.39,6.39,0,0,1-.94-1.76A5.5,5.5,0,0,1,418.43,86.34Z"></path></g><path d="M419.16,81.35a10.6,10.6,0,0,1-.37,2.54,11.33,11.33,0,0,0-.36,2.45l0-35.15a11.24,11.24,0,0,1,.36-2.45,10.68,10.68,0,0,0,.37-2.55C419.15,56.74,419.16,70.8,419.16,81.35Z" style="fill:#2E6399"></path><g style="opacity:0.4"><path d="M419.16,81.35a10.6,10.6,0,0,1-.37,2.54,11.33,11.33,0,0,0-.36,2.45l0-35.15a11.24,11.24,0,0,1,.36-2.45,10.68,10.68,0,0,0,.37-2.55C419.15,56.74,419.16,70.8,419.16,81.35Z"></path></g><path d="M419.14,46.19l0,35.16a5.77,5.77,0,0,0-.35-2,7.43,7.43,0,0,0-.94-1.72c-3.2-4.31-12.14-6.93-27.19-8V34.48c15,1.05,24,3.67,27.18,8a7.17,7.17,0,0,1,.94,1.71A5.81,5.81,0,0,1,419.14,46.19Z" style="fill:#2E6399"></path></g><g id="freepik--Arrow--inject-393"><polygon points="333.1 429.06 302.53 446.75 302.52 446.75 210.45 500 0 500 0 435.29 221.72 307.04 252.29 289.36 333.1 429.06" style="fill:#2E6399"></polygon><polygon points="322.56 481.38 443.07 272.24 201.69 272.41 322.56 481.38" style="fill:#2E6399"></polygon></g><g id="freepik--character-2--inject-393"><path d="M243.08,272.74c1.57.51,46.45.12,48.15-1,.65-.41,1-6.95,1.14-14.86,0-1.71,3.42-29.25,3.42-29.25l-30,.18-2.35,29.24s-17.12,7.83-18.86,9.24S241.51,272.23,243.08,272.74Z" style="fill:#f7a9a0"></path><path d="M292.92,251.62c-.32,2.82-.54,4.85-.55,5.27-.17,7.92-.49,14.45-1.14,14.87-1.7,1.1-46.58,1.49-48.15,1s-.23-5,1.51-6.43,18.84-9.24,18.84-9.24l.44-5.45Z" style="fill:#ebebeb"></path><path d="M242.25,272.91c1.62.54,47.91.48,49.67-.64.67-.42.71-8.36.94-16.52H263.37l-.1,1.17c-4.1,2-17.89,8.16-19.42,9.37C242.06,267.72,240.64,272.38,242.25,272.91Z" style="fill:#455a64"></path><path d="M242.91,271.06c7.76-.2,39.08-.28,46.76.11.06,0,.06.05,0,.05-7.68.37-39,.19-46.76,0C242.75,271.18,242.75,271.07,242.91,271.06Z" style="fill:#263238"></path><path d="M246.83,264.62a6.19,6.19,0,0,1,4.64,1.89,6,6,0,0,1,1.74,4.14s-.08.05-.09,0a7.19,7.19,0,0,0-6.29-5.93C246.77,264.71,246.76,264.62,246.83,264.62Z" style="fill:#263238"></path><path d="M260.36,257.68c3.1-.05,6.71,1,8.64,3.58.07.1-.07.2-.16.16a42.71,42.71,0,0,0-8.54-3.36A.2.2,0,0,1,260.36,257.68Z" style="fill:#263238"></path><path d="M258,258.62c3.11-.05,6.71,1,8.64,3.58.08.1-.06.2-.16.15a43.2,43.2,0,0,0-8.53-3.35A.19.19,0,0,1,258,258.62Z" style="fill:#263238"></path><path d="M255.57,259.56c3.1-.05,6.7,1,8.64,3.58.07.09-.07.2-.16.15a42.68,42.68,0,0,0-8.54-3.35A.19.19,0,0,1,255.57,259.56Z" style="fill:#263238"></path><path d="M253.17,260.49c3.1,0,6.71,1.05,8.64,3.58.08.1-.07.21-.16.16a42.83,42.83,0,0,0-8.53-3.35A.2.2,0,0,1,253.17,260.49Z" style="fill:#263238"></path><path d="M257.24,254c1.68,2.16,4.24,3.52,6.45,5a.38.38,0,0,0,.56-.25c.05,0,.1,0,.1-.09a16.29,16.29,0,0,0-2.84-7.94c-1-1.35-2.95-2.62-4.52-1.31S256.26,252.69,257.24,254Zm-.14-2.57c.3-3.38,3.35-.79,4,.23a18.51,18.51,0,0,1,1.14,2.1,47.28,47.28,0,0,1,1.75,4.6c-1-.82-2.14-1.54-3.21-2.32C259.53,255.07,256.93,253.24,257.1,251.38Z" style="fill:#263238"></path><path d="M275.37,256.66c-.24-2-2.56-2.47-4.19-2.15a16.23,16.23,0,0,0-7.51,3.83.08.08,0,0,0,0,.13.38.38,0,0,0,.23.57c2.66.41,5.45,1.17,8.15.75C273.64,259.55,275.6,258.57,275.37,256.66Zm-7.3,2.17c-1.31-.17-2.61-.4-3.93-.52a49,49,0,0,1,4.44-2.14,17.56,17.56,0,0,1,2.26-.74c1.2-.28,5.19-.07,3.1,2.59C272.78,259.49,269.63,259,268.07,258.83Z" style="fill:#263238"></path><path d="M327.05,106.26s7.84,11.39,3.53,23.77c-7.37,21.13-26.08,44.92-26.66,47.64-1.35,6.41-8.83,77.77-8.83,77.77l-32.3-.2s4.55-61.38,10.24-79.8c3.11-10.05,20.86-37.61,28.52-51.06.69-1.2-.93-6.4-.93-6.4Z" style="fill:#263238"></path><path d="M264.74,249.64c5.21-.1,21-.54,27.91,0,.05,0,.05.1,0,.1-2.39.38-22.7.13-27.91,0A.07.07,0,0,1,264.74,249.64Z" style="fill:#37474f"></path><path d="M332.64,121.81c-2.24,3.61-4.61,7.14-6.9,10.72s-4.57,7.17-6.83,10.77q-6.75,10.81-13.18,21.8a67.11,67.11,0,0,0-5.3,10.63,65.31,65.31,0,0,0-2.92,11.42c-.66,3.9-1.08,7.83-1.47,11.76q-.63,6.28-1.25,12.56c-.85,8.57-2,22.77-2.81,31.33l-.3,3.16c0,.15.27.18.28,0,1-8.52,2-22.69,2.87-31.21l1.29-12.73c.4-4,.78-7.9,1.34-11.83a78.35,78.35,0,0,1,2.42-11.44,54.41,54.41,0,0,1,4.87-11.15c4.11-7.3,8.47-14.48,12.83-21.64s8.83-14.41,13.44-21.51c.57-.88,1.14-1.75,1.73-2.61C332.79,121.8,332.68,121.74,332.64,121.81Z" style="fill:#37474f"></path><path d="M335.91,272.89c.64,0,11.84.55,12.8-.31,9.72-8.71,23.39-31.58,23.67-32.73.19-.72-10.09-9.19-10.15-9.24-1.06-1.17-19.69-20.78-19.69-20.78l-20,20.2,19.36,19.82.33.34a72.49,72.49,0,0,1-2.84,12.4c-.28.82-3.89,4.36-4.13,5.05C334.42,269.89,335,272.89,335.91,272.89Z" style="fill:#f7a9a0"></path><path d="M335.91,272.89c.64,0,11.84.55,12.81-.32,9.71-8.7,23.38-31.57,23.66-32.73.19-.72-10.09-9.17-10.15-9.23a34.61,34.61,0,0,0-3.46-3.67L339.1,247l2.76,2.83.34.33a72.83,72.83,0,0,1-2.85,12.4c-.28.82-3.89,4.37-4.13,5.05C334.42,269.89,335,272.89,335.91,272.89Z" style="fill:#ebebeb"></path><path d="M335.48,273.06c.36.25,12.69.34,13.51-.39,7.78-7,23.91-31.68,24.08-33.09.09-.73-5.42-5.72-11.51-9.91L342,250.22s-1.2,8.07-2.77,12.39c-.35,1-3.9,4.22-4.22,4.94C334.05,269.75,335,272.71,335.48,273.06Z" style="fill:#455a64"></path><path d="M336.41,266.61a7.43,7.43,0,0,1,5.63-1,6.34,6.34,0,0,1,4,2.79s-.06.1-.09.06a8.1,8.1,0,0,0-9.52-1.73A.05.05,0,1,1,336.41,266.61Z" style="fill:#263238"></path><path d="M362.41,237.52c2.06-2.52,6,.68,3.91,3.21S360.34,240,362.41,237.52Z" style="fill:#263238"></path><path d="M340.88,253.53c1.73-2.34,4.58-4.39,7.56-4.39.12,0,.11.16,0,.2a39.71,39.71,0,0,0-7.33,4.45A.19.19,0,0,1,340.88,253.53Z" style="fill:#263238"></path><path d="M340.22,255.84c1.73-2.33,4.58-4.39,7.56-4.39.12,0,.11.16,0,.2a39.71,39.71,0,0,0-7.33,4.45A.19.19,0,0,1,340.22,255.84Z" style="fill:#263238"></path><path d="M339.56,258.15c1.73-2.33,4.58-4.39,7.56-4.39.12,0,.11.16,0,.21a39.66,39.66,0,0,0-7.33,4.44A.19.19,0,0,1,339.56,258.15Z" style="fill:#263238"></path><path d="M338.9,260.47c1.73-2.34,4.58-4.4,7.56-4.4.12,0,.11.17,0,.21a39.66,39.66,0,0,0-7.33,4.44A.18.18,0,0,1,338.9,260.47Z" style="fill:#263238"></path><path d="M335.38,271.37c3.38-.45,6.84-.37,10.24-.71l1.19-.11a1.86,1.86,0,0,0,1.2-.36,20.17,20.17,0,0,0,1.51-1.94l3.05-4q6.09-8,12-16.19c1.12-1.54,2.24-3.06,3.35-4.6s2.34-3,3.46-4.53a.05.05,0,1,1,.09.06c-.94,1.44-1.79,2.94-2.77,4.36s-1.94,2.86-2.94,4.27q-3,4.19-6,8.33t-6.17,8.22c-1,1.38-2.1,2.75-3.16,4.11-.51.66-1,1.33-1.54,2a2.06,2.06,0,0,1-1.56.92c-3.93.38-7.94.28-11.88.48A.15.15,0,0,1,335.38,271.37Z" style="fill:#263238"></path><path d="M336.08,253.47c2.62,0,5.15-1.09,7.61-1.84a.37.37,0,0,0,.14-.57.07.07,0,0,0,0-.12,15.51,15.51,0,0,0-7.63-2.59c-1.59-.07-3.71.66-3.67,2.61S334.56,253.46,336.08,253.47Zm-2-1.42c-2.35-2.23,1.4-3,2.57-2.88a18.73,18.73,0,0,1,2.24.39,46.73,46.73,0,0,1,4.49,1.41c-1.23.3-2.42.7-3.64,1C338.28,252.42,335.37,253.28,334.07,252.05Z" style="fill:#263238"></path><path d="M348.87,241.49c-1.67-1-3.37.46-4.1,1.87a15.65,15.65,0,0,0-1.58,7.9c0,.06.05.08.1.07a.36.36,0,0,0,.56.16c1.89-1.75,4.12-3.39,5.41-5.66C350,244.5,350.44,242.45,348.87,241.49Zm-2.7,6.76c-.91.89-1.85,1.72-2.72,2.64a45.51,45.51,0,0,1,1-4.6,17.52,17.52,0,0,1,.79-2.13c.5-1.07,3-3.94,3.78-.78C349.46,245.12,347.25,247.2,346.17,248.25Z" style="fill:#263238"></path><path d="M340.85,250.65l22.09-23.46s-42.72-43.28-43.05-47.52c-.3-3.75,22.22-45.91,22.65-55.44.26-5.68-5.11-15.27-10.61-20.14L300.62,118a21.87,21.87,0,0,0,8.13,8.56s-21.85,47.37-19.26,60.56C291.76,198.59,340.85,250.65,340.85,250.65Z" style="fill:#263238"></path><path d="M337.83,243.52c3.1-3.24,2.16-2.35,5.29-5.56,1.54-1.57,11.63-11.86,13.34-13,0,0,.1,0,.07.07-1.18,1.71-11.47,11.81-13,13.34-3.2,3.14-2.32,2.2-5.56,5.3A.08.08,0,0,1,337.83,243.52Z" style="fill:#37474f"></path><path d="M304.09,126.84a61.3,61.3,0,0,1,10.18,1.61.11.11,0,0,1,0,.21c-3.41-.44-6.85-.8-10.22-1.42A.2.2,0,1,1,304.09,126.84Z" style="fill:#37474f"></path><path d="M307.65,124.94a15.18,15.18,0,0,1,1.09,1.57,4,4,0,0,1,.64,1.37c0,.09-.11.14-.18.09a5.66,5.66,0,0,1-1-1.22c-.35-.49-.72-1-1.06-1.45A.32.32,0,0,1,307.65,124.94Z" style="fill:#37474f"></path><path d="M300.9,115.87c0-.05.09-.11.12-.05a45.34,45.34,0,0,0,2.2,5c.38.76,2.76,4.83,4.27,3.94.26-.15.31-.42.23-.78a5,5,0,0,0-.72-1.26q-.78-1.26-1.44-2.58a22.54,22.54,0,0,1-1.85-5.16s.09-.08.11,0a42.5,42.5,0,0,0,3.14,6.91c.63,1,1.94,2.51.59,3.18s-3.37-1.83-3.84-2.55A23.46,23.46,0,0,1,300.9,115.87Z" style="fill:#37474f"></path><path d="M331.87,119.46c-.56-.2-1.33.16-1.9.26a18.23,18.23,0,0,1-2.21.25,18,18,0,0,1-2.2,0,4.68,4.68,0,0,1-2.11-.53,10.51,10.51,0,0,1-2.71-2.81,16.26,16.26,0,0,1-2.14-3.64c0-.08-.14,0-.11,0,.24.75.43,1.5.73,2.23a15,15,0,0,0,1.06,2,8.46,8.46,0,0,0,2.82,3.12,8.1,8.1,0,0,0,4.42.55,17.44,17.44,0,0,0,2.48-.36c.59-.13,1.58-.24,1.95-.76A.18.18,0,0,0,331.87,119.46Z" style="fill:#37474f"></path><path d="M328.42,108.65a61.08,61.08,0,0,1,5.63,6.4c1.77,2.44,3.63,5,3.95,8.13a15.1,15.1,0,0,1-.85,3.69c-1.33,4.06-2.95,8-4.56,12-5.4,13.15-11.43,26-16.76,39.18a20.11,20.11,0,0,0-1.12,3.42,15.1,15.1,0,0,0,2.46,3.81c10.81,13.16,22.66,25.47,34.23,38-8-8.11-15.85-16.3-23.55-24.68-3.84-4.19-7.65-8.41-11.22-12.86-.91-1.31-2.26-2.57-2.62-4.24.93-4,2.89-7.74,4.4-11.56,6.12-14.38,13-28.46,18.34-43.13.38-1.31,1-2.68.82-4.06a12,12,0,0,0-1.39-3.93,49.72,49.72,0,0,0-7.76-10.1Z" style="fill:#37474f"></path><path d="M308.14,127.75c-6.36,16.15-13,32.3-17.36,49.12-.69,3.29-1.64,6.83-1,10.16,2.08,6.59,6.45,12.3,10.81,17.59-4.61-5.19-9.13-10.74-11.36-17.44-.76-3.53.21-7,.9-10.46,4.23-16.91,11-33.06,18-49Z" style="fill:#37474f"></path><path d="M293.86,81.25c1.09,7.15,1,34.21-2.65,37.38-4.06,3.57-21.95,10.71-26.58,11.86-2.81.71-6.53-17.28-3.2-18.4,4.12-1.39,16.91-5.61,19-7.12,1.12-.82,2.28-10.17,6.35-24.52C288.85,73.07,292.92,75.07,293.86,81.25Z" style="fill:#f7a9a0"></path><path d="M265.29,130.29c-1.86.77-11.85,4-14.49,4.26s-10.28.33-10.66-1.67,1.85-2.21,1.85-2.21-3.23-.47-3.43-2.52,3.29-2.26,3.29-2.26-3.29-.72-3.34-2.78,3.49-1.69,3.49-1.69-3-.52-2.36-2.23c.81-2.07,6.3-.48,9.19-1,.66-.1,13.17-3.11,13.17-3.11Z" style="fill:#f7a9a0"></path><path d="M241.7,121.39c4,1.16,6,1,10-.18.07,0,.13.09,0,.12-3.79,1.48-6.22,2.08-10.1.26C241.44,121.5,241.51,121.34,241.7,121.39Z" style="fill:#263238"></path><path d="M241.53,125.79c4.3.84,6.44.65,10.68-.25.06,0,.09.08,0,.1-4.09,1.24-6.53,1.78-10.72.37C241.33,126,241.33,125.75,241.53,125.79Z" style="fill:#263238"></path><path d="M242.21,130.62a19.86,19.86,0,0,0,10.58-1,.08.08,0,0,1,.06.15,14.11,14.11,0,0,1-10.64,1C242,130.68,241.94,130.58,242.21,130.62Z" style="fill:#263238"></path><path d="M264.45,112.75s-5.22-2.13-7.58-2.38-11.47,2.09-11.08,4.08c.51,2.58,6,2.28,8.72,1.77,0,0,1.16,6,5.17,6.61S264.45,112.75,264.45,112.75Z" style="fill:#f7a9a0"></path><path d="M246.16,115.12c2.16,2,5.64,1.13,8.29.83a.24.24,0,0,1,.27.29c.66,2.47,2.3,5.76,4.83,6.68.07,0,.05.14,0,.12-2.85-.62-4.73-3.72-5.27-6.47-2.71.35-6.24,1.08-8.11-1.43C246.13,115.12,246.15,115.1,246.16,115.12Z" style="fill:#263238"></path><path d="M263.73,110.33l4.73,20.26s16.71-5.41,22.94-10.77c4.64-4,4.51-27.95,3.21-38s-6.56-7.45-8.5-.85-5.27,22.91-5.88,23.56C279.8,105,263.73,110.33,263.73,110.33Z" style="fill:#2E6399"></path><path d="M270.61,119.18c-.32-1.53-.64-3.05-1-4.58s-.61-3.07-1.05-4.56a.06.06,0,0,0-.11,0c.17,1.49.49,3,.76,4.47s.58,3.13.88,4.7c.59,3.1,1.3,6.17,2.05,9.23,0,.08.11,0,.1,0C271.78,125.33,271.25,122.25,270.61,119.18Z" style="fill:#263238"></path><path d="M291.4,119.82a27,27,0,0,1-4.43,2.93l1.71-46.49c2.27-2.23,5-1.29,5.93,5.6C295.91,91.87,296,115.83,291.4,119.82Z" style="opacity:0.1"></path><path d="M298.51,127.84c1.35.3,38.71-18.1,38.74-18.45s-22-33-37.78-37.13c-4.55-1.18-10.55,2-11.27,6.15C286.52,88.21,297.67,127.65,298.51,127.84Z" style="fill:#2E6399"></path><polygon points="295.71 83.56 292.84 81.26 291.49 85.04 293.16 86.99 295.61 86.17 295.71 83.56" style="fill:#263238"></polygon><polygon points="295.61 86.17 307.45 112.81 307.02 122.57 299.51 115.54 293.16 86.99 295.61 86.17" style="fill:#263238"></polygon><rect x="306.93" y="142.98" width="59.6" height="37.56" transform="translate(-9.98 22.67) rotate(-3.8)" style="fill:#2E6399"></rect><rect x="306.93" y="142.98" width="59.6" height="37.56" transform="translate(-9.98 22.67) rotate(-3.8)" style="opacity:0.1"></rect><rect x="306.27" y="143" width="59.6" height="17.69" transform="translate(-9.32 22.6) rotate(-3.8)" style="opacity:0.1"></rect><rect x="304.49" y="137.49" width="62.42" height="17.53" transform="translate(-8.95 22.56) rotate(-3.8)" style="fill:#2E6399"></rect><rect x="304.49" y="137.49" width="62.42" height="17.53" transform="translate(-8.95 22.56) rotate(-3.8)" style="opacity:0.1"></rect><polygon points="343.38 130.59 343.8 136.94 340.93 137.13 340.69 133.51 329.74 134.24 329.98 137.85 327.11 138.05 326.69 131.69 343.38 130.59" style="fill:#263238"></polygon><rect x="313.68" y="152.18" width="4.07" height="8.37" transform="translate(-9.66 21.26) rotate(-3.8)" style="fill:#263238"></rect><rect x="354.81" y="149.45" width="4.07" height="8.37" transform="translate(-9.4 23.99) rotate(-3.8)" style="fill:#263238"></rect><path d="M302.66,72.31c5.31.49,27.58,4.52,30.83,7.4,4.93,4.38,10.66,26.89,11.53,32.09.38,2.27-17.4,4.7-18,2.31-.38-1.62-2.69-20.46-3.71-22s-15.69-9.51-23.8-13C291.81,75.74,291.4,71.29,302.66,72.31Z" style="fill:#f7a9a0"></path><path d="M328.65,136.79a2.8,2.8,0,0,0,3-1,4.15,4.15,0,0,0,2.45,1.43c1.71.23,2.82-2.34,2.82-2.34a5.17,5.17,0,0,0,2.82,1.1c1.66.05,3.15-2.38,3.15-2.38A4.51,4.51,0,0,0,346,133c2.41-1.61,2.28-6,2.22-8.86S345.4,113.37,345,111.8L327,112s-3.35,12.69-2.81,16C324.59,130.77,326.56,136.1,328.65,136.79Z" style="fill:#f7a9a0"></path><path d="M331.4,135.64c-1.19-2.84-1.47-5.88-1.93-8.9,0-.06.1-.08.11,0,.41,3,1.42,5.89,2,8.87A.07.07,0,0,1,331.4,135.64Z" style="fill:#263238"></path><path d="M336.72,134.79a8,8,0,0,1-.35-2.07c-.08-.74-.14-1.48-.19-2.22-.1-1.49-.16-3-.19-4.46,0-.07.1-.09.11,0,.1,1.48.22,3,.39,4.44.08.74.17,1.47.26,2.21a9.22,9.22,0,0,1,.17,2.09A.1.1,0,0,1,336.72,134.79Z" style="fill:#263238"></path><path d="M342.92,133.5a5.61,5.61,0,0,1-.22-1.88c0-.67-.07-1.35-.1-2-.08-1.36-.16-2.71-.28-4.06a.05.05,0,0,1,.1,0c.13,1.38.29,2.75.41,4.12.06.68.11,1.35.17,2a5.41,5.41,0,0,1,0,1.84A0,0,0,0,1,342.92,133.5Z" style="fill:#263238"></path><path d="M325.57,112.37l20.78-1.24s-4.84-23.77-12.28-31.56C331,76.36,310.34,72.73,301.8,72s-13.83,2.1-2.17,7.7,21.85,11,22.05,11.84S325.57,112.37,325.57,112.37Z" style="fill:#2E6399"></path><path d="M326.43,108.48a40.08,40.08,0,0,1,4.23-.54c1.47-.16,2.93-.28,4.4-.4s7.35-.41,8.82-.48c.06,0,.07.1,0,.1-1.47.17-7.27.81-8.71.92s-2.88.24-4.32.31-3,.22-4.42.15C326.41,108.54,326.39,108.48,326.43,108.48Z" style="fill:#263238"></path><path d="M326.87,112.29s-1.3.11-1.32.1c-.69-3.41-1.32-6.82-2-10.24s-1.12-7.24-2.28-10.55c-2.13-1.65-6-3.51-8.32-4.89l-9.12-5c4.74,2.15,9.43,4.43,14,6.94a29.59,29.59,0,0,1,3.94,2.43,1.53,1.53,0,0,1,.41.72,199.05,199.05,0,0,1,3.39,20.57c-.12,0,1.3-.07,1.28-.07Z" style="fill:#263238"></path><path d="M307.18,83.39a3.15,3.15,0,0,1-2.43-.56c.83.21,1.6.36,2.43.56Z" style="fill:#263238"></path><path d="M292.69,81.88c2.44-.44,4.84-5.23,5.14-8.63,0-.23-1.13-2.09-2.42-4.41-.77-1.41-1.61-3-2.26-4.51l-8.45,6.41a26.3,26.3,0,0,1,3.43,5.38,3.44,3.44,0,0,1,.2.65l0,.11C288.68,78.13,290.33,82.31,292.69,81.88Z" style="fill:#f7a9a0"></path><path d="M292.68,64.69c.67,2.73,1.66,9.51-3.33,11.82a6.66,6.66,0,0,1-1,.37.37.37,0,0,1,0-.11,4,4,0,0,0-.2-.65,26.51,26.51,0,0,0-3.43-5.39Z" style="fill:#263238"></path><path d="M289.54,52.39C292,55.3,294.41,65.76,293,68.94c-2.11,4.62-7.64,7.36-12.1,4.35s-7.2-16.6-5.38-19.71C278.16,49,285.9,48.08,289.54,52.39Z" style="fill:#f7a9a0"></path><path d="M283,62.24s.06,0,.07,0c.16.7.47,1.48,1.16,1.54,0,0,0,0,0,0C283.43,64,283,62.93,283,62.24Z" style="fill:#263238"></path><path d="M283.42,61.34c1.1-.38,1.78,1.85.77,2.2S282.49,61.67,283.42,61.34Z" style="fill:#263238"></path><path d="M279,63.46s0,0,0,.08c.23.68.39,1.5-.17,1.93,0,0,0,0,0,0C279.57,65.16,279.35,64.07,279,63.46Z" style="fill:#263238"></path><path d="M278.18,62.93c-1.13.26-.53,2.51.52,2.27S279.13,62.71,278.18,62.93Z" style="fill:#263238"></path><path d="M283.92,60.27c-.32,0-.63,0-.95.06a1.67,1.67,0,0,1-1-.13.53.53,0,0,1-.16-.59,1.24,1.24,0,0,1,1.09-.59,1.82,1.82,0,0,1,1.26.32A.53.53,0,0,1,283.92,60.27Z" style="fill:#263238"></path><path d="M277,62.15a8.39,8.39,0,0,0,.81-.5c.31-.2.58-.32.74-.67a.5.5,0,0,0-.21-.57,1.22,1.22,0,0,0-1.23.14,1.78,1.78,0,0,0-.85,1A.53.53,0,0,0,277,62.15Z" style="fill:#263238"></path><path d="M285.34,68.55c-.12.22-.21.49-.46.59a2.1,2.1,0,0,1-.79.06s0,0,0,0a1,1,0,0,0,1,.1.74.74,0,0,0,.35-.77A0,0,0,0,0,285.34,68.55Z" style="fill:#263238"></path><path d="M284,66.71a2.44,2.44,0,0,1-1.24,1.53,3,3,0,0,1-.84.3.45.45,0,0,1-.16,0l-.16,0a.19.19,0,0,1-.19-.11h0a.15.15,0,0,1,0-.07h0v-.06C281.17,67.82,281,67,281,67c-.16.16-1,.91-1.09.63a36.85,36.85,0,0,1-1.28-7.4c0-.08.11-.09.13,0,.64,2.23.88,4.56,1.49,6.8a4.55,4.55,0,0,1,1-.68c.09,0,.36,1.6.46,1.83v0a3.39,3.39,0,0,0,2.2-1.51S284,66.65,284,66.71Z" style="fill:#263238"></path><path d="M282.16,68.27a2.91,2.91,0,0,0,1.37.51,1.36,1.36,0,0,0,.77-.19c.49-.32.35-.82.12-1.22a3.63,3.63,0,0,0-.45-.57A3.74,3.74,0,0,1,282.16,68.27Z" style="fill:#263238"></path><path d="M283.53,68.78a1.36,1.36,0,0,0,.77-.19c.49-.32.35-.82.12-1.22A1.35,1.35,0,0,0,283.53,68.78Z" style="fill:#ff9abb"></path><path d="M291.49,60.72c-1.83.5-3.14-3.93-3.14-3.93s-2.9.43-5.5-2.86c0,0-2.77,3.4-5.9,3.86-4.9.73-6.81-5.32-5.5-7.13,1.86-2.56,7.08-1.52,7.08-1.52s6-4.08,9.47-.28a3.57,3.57,0,0,1,4.29,2.32C293.6,54.36,292.85,60.35,291.49,60.72Z" style="fill:#263238"></path><path d="M289.17,57.08a6.38,6.38,0,0,1-4.09-.71,4.77,4.77,0,0,1-2.42-3.69c0-.08-.14-.06-.13,0a5.53,5.53,0,0,0,2.22,4.13,4.47,4.47,0,0,0,4.45.39C289.27,57.19,289.25,57.07,289.17,57.08Z" style="fill:#263238"></path><path d="M291.88,49.19a4.42,4.42,0,0,0-4.11,0c-.07,0,0,.16.05.12a4,4,0,0,1,4.05.7,5.06,5.06,0,0,1,1.49,3.56,10.17,10.17,0,0,1-1.89,7s0,.07,0,0a10.09,10.09,0,0,0,2.17-7.71C293.5,51.53,293.08,50,291.88,49.19Z" style="fill:#263238"></path><path d="M278.79,49.3a4.76,4.76,0,0,0-3.2-1.08,5.69,5.69,0,0,0-3.7,1.69,3.21,3.21,0,0,0-.72,3.13,5.73,5.73,0,0,0,2.37,3,0,0,0,1,0,0,0,5.73,5.73,0,0,1-2-2.78,3,3,0,0,1,.81-3c1.61-1.48,4.43-2.29,6.32-.78A.06.06,0,0,0,278.79,49.3Z" style="fill:#263238"></path><path d="M290.27,61.15s.92-4.06,2.68-3.85,1.95,5.46.52,6.77a1.84,1.84,0,0,1-2.66,0Z" style="fill:#f7a9a0"></path><path d="M293,58.81s0,0,0,0a4.66,4.66,0,0,0-1.13,3.61,1,1,0,0,1,1.31-.83s0,.07,0,.08a1.14,1.14,0,0,0-1,.84,5,5,0,0,0-.17,1.16c0,.13-.23.15-.24,0v0C291.1,62.2,291.41,59.61,293,58.81Z" style="fill:#263238"></path><path d="M287.89,75.72l4.76,4.52,3.66-10.16,3,1.35s-1.62,14.21-1.89,13.73l-4.47-3.72-1.77,4.83-3.55-8.46Z" style="fill:#2E6399"></path><path d="M289.17,82.19c-.54-1.42-1.13-2.83-1.6-4.27a.05.05,0,0,1,.09,0c.88,1.2,2.92,6.62,3.5,7.88v0c.07-.21,1.71-4.32,1.76-4.29.84.53,4.11,3.23,4.37,3.5.25-2.26,1.57-11.3,2.06-13.54a.06.06,0,0,1,.11,0c-.09,2.29-1.7,14.16-1.79,14.17a59,59,0,0,1-4.7-3.94,39.56,39.56,0,0,1-1.83,5.11A48.3,48.3,0,0,1,289.17,82.19Z" style="fill:#263238"></path></g><g id="freepik--character-1--inject-393"><path d="M175.74,114.13c-15.29,6.35-29,14.1-29.59,19-.84,7.05,3.22,25.15,6.58,33.22,1,2.37,19.27-5.68,18.22-8.22-1.27-3.06-7.52-21-7.55-21.29-.07-.71,13.41-13.31,16.92-16.36C186.75,114.89,183.41,110.94,175.74,114.13Z" style="fill:#d3766a"></path><path d="M150.79,160.55c.14,2.13,1.65,11.84,2.67,14.45s4.52,9.89,6.6,9.31,1.22-2.8,1.22-2.8,2,2.85,4,2.07.6-4.18.6-4.18,2.23,2.78,4.2,1.86,0-4.1,0-4.1,1.92,2.63,3.23,1.19c1.57-1.73-2.51-6.19-3.43-9.15-.2-.67-3.23-13.94-3.23-13.94Z" style="fill:#d3766a"></path><path d="M170.21,177.44c-3-3.28-3.74-5.24-4.51-9.54,0-.09-.15-.09-.14,0,.37,4.29.95,6.87,4.5,9.69C170.23,177.73,170.35,177.59,170.21,177.44Z" style="fill:#263238"></path><path d="M166.12,179.66c-2.81-3.68-3.64-5.79-4.78-10.24,0-.06-.12,0-.11,0,.75,4.46,1.39,7,4.68,10.33C166.06,179.92,166.25,179.83,166.12,179.66Z" style="fill:#263238"></path><path d="M161.23,181.29a21,21,0,0,1-4-10.5.09.09,0,0,0-.17,0,14.92,14.92,0,0,0,4.07,10.55C161.29,181.56,161.39,181.52,161.23,181.29Z" style="fill:#263238"></path><path d="M166.7,152.51a53.29,53.29,0,0,1,6.07,5.26c1.63,1.9,5.09,11.22,3.12,12.09-2.55,1.11-5.6-3.88-6.78-6.52,0,0-5.89,2.57-8.86-.53S166.7,152.51,166.7,152.51Z" style="fill:#d3766a"></path><path d="M175.09,169.93c-3.05-.66-4.38-4.22-5.71-6.7a.26.26,0,0,0-.42-.07c-2.54.92-6.39,1.47-8.71-.18-.07,0-.15,0-.09.1,2.26,2.11,6.08,1.87,8.8.69,1.33,2.56,2.81,6.08,6.12,6.19C175.1,170,175.11,169.94,175.09,169.93Z" style="fill:#263238"></path><path d="M167,147.49,147.11,151s-3.86-15.93-1.23-19.89,17.73-11.86,28.7-16.7c9.14-4,13,.21,5.69,7.12-8.85,8.37-16.55,15.09-16.5,15.42S167,147.49,167,147.49Z" style="fill:#2E6399"></path><path d="M165,144.11a.06.06,0,0,0,0-.12,162.56,162.56,0,0,0-17.54,2.83c-.06,0,0,.12,0,.11A162.53,162.53,0,0,0,165,144.11Z" style="fill:#263238"></path><path d="M163.78,136.89c.05.33,3.2,10.6,3.2,10.6L147.11,151s-1.13-4.67-1.75-9.58l32.77-28.26c6.46-1.53,8.4,2.44,2.14,8.36C171.45,129.82,163.78,136.52,163.78,136.89Z" style="fill:#020100;opacity:0.1"></path><path d="M190.6,327.13a74.16,74.16,0,0,1-24.24.09c-11.21-2.05-23.6-5.08-24.34-5.75C141.44,321,152,278,152,278l29.15,5.76-7.32,28-.1.49s2.29,1.83,7.17,4.92c.88.55,9.9,3.15,10.54,3.87C192.9,322.75,192.25,326.89,190.6,327.13Z" style="fill:#d3766a"></path><path d="M190.6,327.13a74.3,74.3,0,0,1-24.24.1c-11.21-2.05-23.61-5.08-24.33-5.76-.19-.16.69-4.34,2-10.05,7.16,2.61,29.26,9.45,32.54,9.84,3.77.47,9.46,1,9-.44-.38-1.25-3.69-3.09-4.51-3.52,1.55.69,9.75,3.08,10.35,3.77C192.89,322.75,192.25,326.89,190.6,327.13Z" style="fill:#263238"></path><path d="M187.8,147.69s2.12,20.2-2.1,24.75c0,0,6.47,51.7,5,65.26-2.09,19.24-12.23,67.91-12.23,67.91l-31.88-8.12s14-60.37,14.16-61.52c.43-3.82-6.87-59.78-7.25-60.91-4.95-14.52,2-27.76,2-27.76Z" style="fill:#37474f"></path><path d="M175.89,297.57c-4.18-1.21-3-.94-7.15-2.08-2.06-.57-15.55-4.24-17.58-4.32,0,0-.07.09,0,.11,1.81.92,15.39,4.28,17.45,4.79,4.23,1,3,.68,7.27,1.66C175.93,297.75,176,297.59,175.89,297.57Z" style="fill:#263238"></path><path d="M165.62,291.17c2.25-9.72,4.41-19.46,6.54-29.2,1.06-4.88,2.08-9.76,3-14.65.59-3.65,1.66-7.31,1.23-11-1.77-16.45-5.57-47-7.38-63-4.23-7-2.39-15.84-.09-23.19-2.09,7.3-3.71,16.09.49,22.92,2.8,21.67,5.72,43.38,7.79,65.14-.72,8.11-2.9,16-4.58,23.94-2.2,9.73-4.59,19.42-7,29.1Z" style="fill:#263238"></path><path d="M189.94,216,155.53,147.3l32.27.39s2.12,20.2-2.1,24.75C185.7,172.44,188.42,195.81,189.94,216Z" style="fill:#263238"></path><path d="M242.57,273.1c-1.58.5-46.58-.4-48.27-1.52-.65-.42,6.85-39,6.85-39l26.57.21-5.38,24.33s17.07,8,18.8,9.48S244.15,272.61,242.57,273.1Z" style="fill:#d3766a"></path><path d="M242.57,273.1c-.69.22-9.77.17-19.87-.05l-2-.05c-1.72,0-3.46-.08-5.19-.13l-2-.07h0l-2-.07-3-.11-1.85-.07h0l-1.77-.08h0c-.87,0-1.69-.07-2.48-.12l-1.56-.08c-1,0-1.87-.11-2.66-.18-.4,0-.78-.05-1.12-.09-.86-.07-1.55-.15-2-.23a2.75,2.75,0,0,1-.74-.2c-.23-.15-.19-5,1.19-11.34,4.34,1.07,11.41,2.76,23.54,4.66,19.95,3.11,14.06-2.33,10.69-4.2l-.1-.05.63.3.11.05,1.15.57,1.26.62c.7.34,1.4.68,2.06,1s1.32.65,1.93,1l1.05.54c.17.08.33.18.49.26l.64.34c.45.24.84.46,1.18.66a1.71,1.71,0,0,1,.23.13,6.73,6.73,0,0,1,.79.52C242.85,268.06,244.15,272.61,242.57,273.1Z" style="fill:#263238"></path><path d="M226.15,247.21l-29-.84s11.34-48.67,10.63-51.16c-.28-1-34.9-11.08-44.33-18.26-11.46-8.74-7.88-29.65-7.88-29.65l32.26.39a7.08,7.08,0,0,0,1.27,4.35c2.44,3.38,45.56,19.16,49.23,29.21C242.9,193.87,226.15,247.21,226.15,247.21Z" style="fill:#37474f"></path><path d="M155.49,158.42a24,24,0,0,0,6.34,15.77c3.79,4.42,9.38,6.74,14.54,9.23,3.56,1.59,7.18,3.05,10.84,4.43a97,97,0,0,1-11.12-3.77c-5.37-2.32-11.16-4.68-15-9.29s-6.31-10.37-5.61-16.37Z" style="fill:#263238"></path><path d="M182.69,150.07a11.17,11.17,0,0,0,.73,5.31c1.58,2.57,4.4,4.07,6.86,5.7,7.11,4.38,18,9.7,25.54,13.64A120.33,120.33,0,0,1,228.4,182c1.41,1.09,3.34,2.3,3.51,4.29.41,7.9-1.72,15.69-3.23,23.38-2.09,9.44-4.53,18.79-7.16,28.08,2.38-9.35,4.62-18.75,6.61-28.2,1.38-7.63,3.5-15.37,3.07-23.15-.2-1.81-1.91-2.74-3.23-3.79a124.44,124.44,0,0,0-12.47-7.27c-8.53-4.54-17.24-8.77-25.42-13.94-2.43-1.71-5.25-3.3-6.78-6a11.23,11.23,0,0,1-.61-5.36Z" style="fill:#263238"></path><path d="M225,240.43c-4-.16-2.88-.2-6.92-.3-2,0-15-.37-16.81,0,0,0,0,.11,0,.12,1.84.45,14.83.45,16.81.45,4,0,2.88-.07,6.92-.14C225,240.6,225.05,240.44,225,240.43Z" style="fill:#263238"></path><path d="M193.73,89.53c-3.85,5.75-.1,10-1.85,11.89-4.58,5-1,6.28-2.13,8-1,1.45-5.15,2.94-3.16,7.65l19.67-1.89c.28-3.29-3.13-4.71-3.55-7s2.07-4.8-2.73-9.26C196.87,96.1,195.58,86.77,193.73,89.53Z" style="fill:#263238"></path><path d="M189.82,141.74l.13,7.74-36-.41s11.48-26.15,22.78-34.71c6.42-4.87,10.47-1.27,12.78,3.31.59,1.15,4.79,12.25,4.74,16.89A8.63,8.63,0,0,1,189.82,141.74Z" style="fill:#2E6399"></path><path d="M185.55,139.25a27.91,27.91,0,0,0-4.61.85c-.75.21-1.49.46-2.22.74l-1.11.37a4.08,4.08,0,0,1-1.19.25s0,.06,0,.07a7.37,7.37,0,0,0,1.15,0,7.06,7.06,0,0,0,1.09-.23c.76-.21,1.51-.46,2.28-.67,1.53-.45,3.07-.89,4.63-1.2C185.64,139.38,185.62,139.24,185.55,139.25Z" style="fill:#263238"></path><path d="M189.38,140.81a31.06,31.06,0,0,0-3.85-.22c-.64,0-1.28.06-1.92.13l-.92.11c-.33,0-.66.15-1,.19,0,0,0,.07,0,.06.32,0,.64,0,1,0l1,0c.64,0,1.28,0,1.92-.05,1.29,0,2.56-.07,3.85-.07C189.45,140.93,189.44,140.82,189.38,140.81Z" style="fill:#263238"></path><path d="M181.91,113.49c.07.73,2.8,5.73,6,6,1.05.09,1.79-5.63,1.79-5.63l.15-.41,2.12-5.73-6.34-5.38-.93-.72s-.47,1.6-1,3.61l-.09.29c0,.11-.07.21-.09.32l-.27.91c-.06.23-.12.46-.18.71s-.12.48-.19.73A38,38,0,0,0,181.91,113.49Z" style="fill:#d3766a"></path><path d="M183.69,105.24a12.23,12.23,0,0,0,6.19,8.22l2.12-5.73-6.34-5.38-.93-.72S184.26,103.23,183.69,105.24Z" style="fill:#263238"></path><path d="M181.91,113.49c0,1.73,8.34,13,9.29,12.73.52-.12-2.11-8.92-2.11-8.92Z" style="fill:#d3766a"></path><path d="M176.27,122.29c7.6,15.46,16,27.44,21.28,28,7,.81,22.7-4.63,28.69-8.73,2.12-1.45-4.8-19-7.27-17.85-3,1.43-18.33,9.11-18.66,9.16-.71.1-14.06-10.77-17.63-13.88C176.72,113.82,172.89,115.43,176.27,122.29Z" style="fill:#d3766a"></path><path d="M214.41,127.29s5.54-4.6,9.3-7.44c2.1-1.58,5.95-4,8-4.43,3.1-.69,16.52-1.57,16.81,1.68.25,2.94-11.37,2.23-11.37,2.23s11.79-.32,11.45,3.28-13.37,1-13.37,1,12.12-.06,11.18,3.59c-.71,2.77-12.64,1.12-12.64,1.12s10.43,0,9.82,2.9c-.67,3.17-11.78,2.35-11.78,2.35-2.77,7-7,9.25-10.15,10.47C220.91,144.39,214.41,127.29,214.41,127.29Z" style="fill:#d3766a"></path><path d="M233.08,119.18c1.39-.08,2.79-.18,4.17-.15s2.78.12,4.15.28a24.42,24.42,0,0,1,5.3,1.15,51.71,51.71,0,0,0-9.47-1c-1.38,0-2.77-.14-4.15-.17C233,119.23,233.05,119.19,233.08,119.18Z" style="fill:#263238"></path><path d="M232.86,124.19c1.78,0,3.53-.14,5.31-.1s3.43.24,5.19.4c.14,0,.09.09-.05.08-1.76-.09-3.4,0-5.16-.12s-3.53-.21-5.29-.22C232.83,124.23,232.84,124.19,232.86,124.19Z" style="fill:#263238"></path><path d="M231.9,128.45a39.39,39.39,0,0,1,8.12.48c.14,0,.06.1-.08.09-2.69-.21-4.81-.4-8-.47C231.86,128.54,231.85,128.46,231.9,128.45Z" style="fill:#263238"></path><path d="M207.94,128.8l6.67,19.77s-14.17,3.53-18.49,1.53-14-14-19-24.93-1.13-12.6,8.13-4.68,14.75,11.77,15.07,11.67S207.94,128.8,207.94,128.8Z" style="fill:#2E6399"></path><path d="M204.08,131.59a.06.06,0,0,0-.11,0,163.83,163.83,0,0,0,5.6,16.85.06.06,0,0,0,.11,0A161.45,161.45,0,0,0,204.08,131.59Z" style="fill:#263238"></path><path d="M207.94,128.8c-1.88.91-5.67,2.69-7.57,3.55-.13.07-.09.07-.21,0a191.64,191.64,0,0,1-16-12.94c1.33,1.09,2.7,2.12,4.05,3.18,2.57,2,9.56,7.37,12.23,9.42l-.21,0c1.92-.82,5.8-2.4,7.74-3.17Z" style="fill:#263238"></path><path d="M177,125.78c4.18,6.26,8.07,13.14,12.94,18.88-5.44-5.38-9.3-12.21-12.94-18.88Z" style="fill:#263238"></path><path d="M176.91,126.75c.67.83,1.34,1.59,2,2.42a5.07,5.07,0,0,1-2-2.42Z" style="fill:#263238"></path><path d="M199.68,96.13c3.61,10.09-2,13.39-4.2,14.17-2,.7-8.79,2.85-13.43-6.81S181,89,185.4,87.11,196.07,86,199.68,96.13Z" style="fill:#d3766a"></path><path d="M197.32,93.43a6.13,6.13,0,0,1-.73.11,1.19,1.19,0,0,1-.77,0,.38.38,0,0,1-.16-.44.94.94,0,0,1,.8-.53,1.43,1.43,0,0,1,1,.16A.41.41,0,0,1,197.32,93.43Z" style="fill:#263238"></path><path d="M191.46,97.6c.24-.08.45-.2.68-.3a1.19,1.19,0,0,0,.63-.44.37.37,0,0,0-.09-.45.94.94,0,0,0-1,0A1.39,1.39,0,0,0,191,97,.41.41,0,0,0,191.46,97.6Z" style="fill:#263238"></path><path d="M193.33,98.51s0,.06,0,.08c.29.67.51,1.49,0,2,0,0,0,0,0,0C194,100.18,193.71,99.1,193.33,98.51Z" style="fill:#263238"></path><path d="M192.44,98c-1.12.35-.34,2.58.7,2.25S193.38,97.75,192.44,98Z" style="fill:#263238"></path><path d="M192.05,98.32c-.15.19-.27.48-.49.58s-.55,0-.81-.2c0,0,0,0,0,0,.15.43.47.81.94.71a.87.87,0,0,0,.56-1C192.22,98.33,192.11,98.24,192.05,98.32Z" style="fill:#263238"></path><path d="M197,96.94s.06,0,.07,0c.21.69.58,1.46,1.28,1.47,0,0,0,0,0,0C197.59,98.66,197.12,97.64,197,96.94Z" style="fill:#263238"></path><path d="M197.4,96c1.08-.46,1.93,1.73.92,2.16S196.49,96.4,197.4,96Z" style="fill:#263238"></path><path d="M197.91,96c.22,0,.47.19.68.13s.34-.39.4-.68c0,0,0,0,0,0a.88.88,0,0,1-.16,1.14c-.34.21-.75,0-1-.42C197.81,96.1,197.82,96,197.91,96Z" style="fill:#263238"></path><path d="M194.94,104.38a1.23,1.23,0,0,0,.7.28,2,2,0,0,0,.72-.36s0,0,0,0a1,1,0,0,1-.81.6.8.8,0,0,1-.71-.51S194.91,104.36,194.94,104.38Z" style="fill:#263238"></path><path d="M197.21,100.83s.45,1,.59,1.5c0,0-.1.1-.26.16h0a2.43,2.43,0,0,1-2.53-.22.05.05,0,0,1,0-.09,3.68,3.68,0,0,0,2.32,0c0-.15-.82-1.7-.75-1.73a4.62,4.62,0,0,1,1.2-.07c-.87-2.12-2.08-4.08-2.91-6.21a.07.07,0,0,1,.12-.07,37.21,37.21,0,0,1,3.42,6.56C198.56,100.94,197.44,100.86,197.21,100.83Z" style="fill:#263238"></path><path d="M197.31,102.36a2.77,2.77,0,0,1-.76,1.19,1.21,1.21,0,0,1-.7.3c-.56.05-.75-.42-.8-.86a3.09,3.09,0,0,1,0-.7A3.63,3.63,0,0,0,197.31,102.36Z" style="fill:#263238"></path><path d="M196.55,103.55a1.21,1.21,0,0,1-.7.3c-.56.05-.75-.42-.8-.86A1.3,1.3,0,0,1,196.55,103.55Z" style="fill:#ff9abb"></path><path d="M188,85.52c-5.16.14-9.32,1.65-11.14,4.38-3.8,5.69-.44,14.43-2.17,16.32-4.51,4.93-.94,6.2-2.09,8-.94,1.44-5.08,2.92-3.1,7.57l19.42-1.91c.27-3.24-3.1-4.64-3.52-6.88s2-4.74-2.71-9.14C179.58,101,188,85.52,188,85.52Z" style="fill:#263238"></path><path d="M181,103c1.22-.22,4.06-.77,5.43-2.69.76-1.05,1.25-2.64,1.12-5.22-.23-4.5,1.93-8.06,7.14-6.76,0,0-.09-4.21-3.17-5.07s-5.1,2.49-5.1,2.49-6.06,1-8,6.26S181,103,181,103Z" style="fill:#263238"></path><path d="M185.42,102.51s-3-2.78-4.3-1.65,1.42,5.51,3.3,5.79a1.82,1.82,0,0,0,2.17-1.46Z" style="fill:#d3766a"></path><path d="M181.94,102.09s0,0,0,0a4.61,4.61,0,0,1,2.91,2.31,1,1,0,0,0-1.52,0,0,0,0,0,0,0,0,1.12,1.12,0,0,1,1.28.13,5.81,5.81,0,0,1,.79.85c.08.1.26,0,.19-.12v0C185.32,103.82,183.64,101.89,181.94,102.09Z" style="fill:#263238"></path></g></svg>
